0
SECTION
2
HEADER
9
$ACADVER
1
AC1024
9
$INSUNITS
70
4
0
ENDSEC
0
SECTION
2
TABLES
0
TABLE
2
LTYPE
70
1
0
LTYPE
70
1
2
Standard
74
0
73
0
71
65
40
0.0
3
SOLID
0
ENDTAB
0
TABLE
2
LAYER
70
4
0
LAYER
70
0
62
7
6
BYLAYER
2
0
0
LAYER
70
0
62
7
6
BYLAYER
2
Dimensions
0
LAYER
70
0
62
7
6
BYLAYER
2
Profile
0
LAYER
70
0
62
7
6
BYLAYER
2
Centerline
0
ENDTAB
0
TABLE
2
STYLE
70
1
0
STYLE
70
0
2
Romans
40
2.5
41
1.0
50
0.0
43
0.0
71
0
190
Simplex.sh
0
ENDTAB
0
TABLE
2
DIMSTYLE
70
1
0
DIMSTYLE
70
0
2
ISO-25
70
0
40
3.5
41
3.5
42
2.5
71
0
72
1
73
0
74
0
45
3.5
46
3.5
3
DIMASZ
40
2.5
0
ENDTAB
0
TABLE
2
APPID
70
1
0
APPID
70
0
2
ACAD
0
ENDTAB
0
ENDSEC
0
SECTION
2
BLOCKS
0
ENDSEC
0
SECTION
2
ENTITIES
0
LINE
8
Profile
10
0.000000
20
0.000000
30
0.0
11
40.000000
21
0.000000
31
0.0
0
LINE
8
Profile
10
40.000000
20
0.000000
30
0.0
11
40.000000
21
25.000000
31
0.0
0
LINE
8
Profile
10
40.000000
20
25.000000
30
0.0
11
40.000000
21
25.000000
31
0.0
0
LINE
8
Profile
10
40.000000
20
25.000000
30
0.0
11
39.950000
21
25.300000
31
0.0
0
LINE
8
Profile
10
39.950000
20
25.300000
30
0.0
11
39.900000
21
25.600000
31
0.0
0
LINE
8
Profile
10
39.900000
20
25.600000
30
0.0
11
39.850000
21
25.900000
31
0.0
0
LINE
8
Profile
10
39.850000
20
25.900000
30
0.0
11
39.800000
21
26.200000
31
0.0
0
LINE
8
Profile
10
39.800000
20
26.200000
30
0.0
11
39.750000
21
26.500000
31
0.0
0
LINE
8
Profile
10
39.750000
20
26.500000
30
0.0
11
39.700000
21
26.800000
31
0.0
0
LINE
8
Profile
10
39.700000
20
26.800000
30
0.0
11
39.650000
21
27.100000
31
0.0
0
LINE
8
Profile
10
39.650000
20
27.100000
30
0.0
11
39.600000
21
27.400000
31
0.0
0
LINE
8
Profile
10
39.600000
20
27.400000
30
0.0
11
39.550000
21
27.700000
31
0.0
0
LINE
8
Profile
10
39.550000
20
27.700000
30
0.0
11
39.500000
21
28.000000
31
0.0
0
LINE
8
Profile
10
39.500000
20
28.000000
30
0.0
11
39.450000
21
28.300000
31
0.0
0
LINE
8
Profile
10
39.450000
20
28.300000
30
0.0
11
39.400000
21
28.600000
31
0.0
0
LINE
8
Profile
10
39.400000
20
28.600000
30
0.0
11
39.350000
21
28.900000
31
0.0
0
LINE
8
Profile
10
39.350000
20
28.900000
30
0.0
11
39.300000
21
29.200000
31
0.0
0
LINE
8
Profile
10
39.300000
20
29.200000
30
0.0
11
39.250000
21
29.500000
31
0.0
0
LINE
8
Profile
10
39.250000
20
29.500000
30
0.0
11
39.200000
21
29.800000
31
0.0
0
LINE
8
Profile
10
39.200000
20
29.800000
30
0.0
11
39.150000
21
30.100000
31
0.0
0
LINE
8
Profile
10
39.150000
20
30.100000
30
0.0
11
39.100000
21
30.400000
31
0.0
0
LINE
8
Profile
10
39.100000
20
30.400000
30
0.0
11
39.050000
21
30.700000
31
0.0
0
LINE
8
Profile
10
39.050000
20
30.700000
30
0.0
11
39.000000
21
31.000000
31
0.0
0
LINE
8
Profile
10
39.000000
20
31.000000
30
0.0
11
38.950000
21
31.300000
31
0.0
0
LINE
8
Profile
10
38.950000
20
31.300000
30
0.0
11
38.900000
21
31.600000
31
0.0
0
LINE
8
Profile
10
38.900000
20
31.600000
30
0.0
11
38.850000
21
31.900000
31
0.0
0
LINE
8
Profile
10
38.850000
20
31.900000
30
0.0
11
38.800000
21
32.200000
31
0.0
0
LINE
8
Profile
10
38.800000
20
32.200000
30
0.0
11
38.750000
21
32.500000
31
0.0
0
LINE
8
Profile
10
38.750000
20
32.500000
30
0.0
11
38.700000
21
32.800000
31
0.0
0
LINE
8
Profile
10
38.700000
20
32.800000
30
0.0
11
38.650000
21
33.100000
31
0.0
0
LINE
8
Profile
10
38.650000
20
33.100000
30
0.0
11
38.600000
21
33.400000
31
0.0
0
LINE
8
Profile
10
38.600000
20
33.400000
30
0.0
11
38.550000
21
33.700000
31
0.0
0
LINE
8
Profile
10
38.550000
20
33.700000
30
0.0
11
38.500000
21
34.000000
31
0.0
0
LINE
8
Profile
10
38.500000
20
34.000000
30
0.0
11
38.450000
21
34.300000
31
0.0
0
LINE
8
Profile
10
38.450000
20
34.300000
30
0.0
11
38.400000
21
34.600000
31
0.0
0
LINE
8
Profile
10
38.400000
20
34.600000
30
0.0
11
38.350000
21
34.900000
31
0.0
0
LINE
8
Profile
10
38.350000
20
34.900000
30
0.0
11
38.300000
21
35.200000
31
0.0
0
LINE
8
Profile
10
38.300000
20
35.200000
30
0.0
11
38.250000
21
35.500000
31
0.0
0
LINE
8
Profile
10
38.250000
20
35.500000
30
0.0
11
38.200000
21
35.800000
31
0.0
0
LINE
8
Profile
10
38.200000
20
35.800000
30
0.0
11
38.150000
21
36.100000
31
0.0
0
LINE
8
Profile
10
38.150000
20
36.100000
30
0.0
11
38.100000
21
36.400000
31
0.0
0
LINE
8
Profile
10
38.100000
20
36.400000
30
0.0
11
38.050000
21
36.700000
31
0.0
0
LINE
8
Profile
10
38.050000
20
36.700000
30
0.0
11
38.000000
21
37.000000
31
0.0
0
LINE
8
Profile
10
38.000000
20
37.000000
30
0.0
11
37.950000
21
37.300000
31
0.0
0
LINE
8
Profile
10
37.950000
20
37.300000
30
0.0
11
37.900000
21
37.600000
31
0.0
0
LINE
8
Profile
10
37.900000
20
37.600000
30
0.0
11
37.850000
21
37.900000
31
0.0
0
LINE
8
Profile
10
37.850000
20
37.900000
30
0.0
11
37.800000
21
38.200000
31
0.0
0
LINE
8
Profile
10
37.800000
20
38.200000
30
0.0
11
37.750000
21
38.500000
31
0.0
0
LINE
8
Profile
10
37.750000
20
38.500000
30
0.0
11
37.700000
21
38.800000
31
0.0
0
LINE
8
Profile
10
37.700000
20
38.800000
30
0.0
11
37.650000
21
39.100000
31
0.0
0
LINE
8
Profile
10
37.650000
20
39.100000
30
0.0
11
37.600000
21
39.400000
31
0.0
0
LINE
8
Profile
10
37.600000
20
39.400000
30
0.0
11
37.550000
21
39.700000
31
0.0
0
LINE
8
Profile
10
37.550000
20
39.700000
30
0.0
11
37.500000
21
40.000000
31
0.0
0
LINE
8
Profile
10
37.500000
20
40.000000
30
0.0
11
37.450000
21
40.300000
31
0.0
0
LINE
8
Profile
10
37.450000
20
40.300000
30
0.0
11
37.400000
21
40.600000
31
0.0
0
LINE
8
Profile
10
37.400000
20
40.600000
30
0.0
11
37.350000
21
40.900000
31
0.0
0
LINE
8
Profile
10
37.350000
20
40.900000
30
0.0
11
37.300000
21
41.200000
31
0.0
0
LINE
8
Profile
10
37.300000
20
41.200000
30
0.0
11
37.250000
21
41.500000
31
0.0
0
LINE
8
Profile
10
37.250000
20
41.500000
30
0.0
11
37.200000
21
41.800000
31
0.0
0
LINE
8
Profile
10
37.200000
20
41.800000
30
0.0
11
37.150000
21
42.100000
31
0.0
0
LINE
8
Profile
10
37.150000
20
42.100000
30
0.0
11
37.100000
21
42.400000
31
0.0
0
LINE
8
Profile
10
37.100000
20
42.400000
30
0.0
11
37.050000
21
42.700000
31
0.0
0
LINE
8
Profile
10
37.050000
20
42.700000
30
0.0
11
37.000000
21
43.000000
31
0.0
0
LINE
8
Profile
10
37.000000
20
43.000000
30
0.0
11
36.950000
21
43.300000
31
0.0
0
LINE
8
Profile
10
36.950000
20
43.300000
30
0.0
11
36.900000
21
43.600000
31
0.0
0
LINE
8
Profile
10
36.900000
20
43.600000
30
0.0
11
36.850000
21
43.900000
31
0.0
0
LINE
8
Profile
10
36.850000
20
43.900000
30
0.0
11
36.800000
21
44.200000
31
0.0
0
LINE
8
Profile
10
36.800000
20
44.200000
30
0.0
11
36.750000
21
44.500000
31
0.0
0
LINE
8
Profile
10
36.750000
20
44.500000
30
0.0
11
36.700000
21
44.800000
31
0.0
0
LINE
8
Profile
10
36.700000
20
44.800000
30
0.0
11
36.650000
21
45.100000
31
0.0
0
LINE
8
Profile
10
36.650000
20
45.100000
30
0.0
11
36.600000
21
45.400000
31
0.0
0
LINE
8
Profile
10
36.600000
20
45.400000
30
0.0
11
36.550000
21
45.700000
31
0.0
0
LINE
8
Profile
10
36.550000
20
45.700000
30
0.0
11
36.500000
21
46.000000
31
0.0
0
LINE
8
Profile
10
36.500000
20
46.000000
30
0.0
11
36.450000
21
46.300000
31
0.0
0
LINE
8
Profile
10
36.450000
20
46.300000
30
0.0
11
36.400000
21
46.600000
31
0.0
0
LINE
8
Profile
10
36.400000
20
46.600000
30
0.0
11
36.350000
21
46.900000
31
0.0
0
LINE
8
Profile
10
36.350000
20
46.900000
30
0.0
11
36.300000
21
47.200000
31
0.0
0
LINE
8
Profile
10
36.300000
20
47.200000
30
0.0
11
36.250000
21
47.500000
31
0.0
0
LINE
8
Profile
10
36.250000
20
47.500000
30
0.0
11
36.200000
21
47.800000
31
0.0
0
LINE
8
Profile
10
36.200000
20
47.800000
30
0.0
11
36.150000
21
48.100000
31
0.0
0
LINE
8
Profile
10
36.150000
20
48.100000
30
0.0
11
36.100000
21
48.400000
31
0.0
0
LINE
8
Profile
10
36.100000
20
48.400000
30
0.0
11
36.050000
21
48.700000
31
0.0
0
LINE
8
Profile
10
36.050000
20
48.700000
30
0.0
11
36.000000
21
49.000000
31
0.0
0
LINE
8
Profile
10
36.000000
20
49.000000
30
0.0
11
35.950000
21
49.300000
31
0.0
0
LINE
8
Profile
10
35.950000
20
49.300000
30
0.0
11
35.900000
21
49.600000
31
0.0
0
LINE
8
Profile
10
35.900000
20
49.600000
30
0.0
11
35.850000
21
49.900000
31
0.0
0
LINE
8
Profile
10
35.850000
20
49.900000
30
0.0
11
35.800000
21
50.200000
31
0.0
0
LINE
8
Profile
10
35.800000
20
50.200000
30
0.0
11
35.750000
21
50.500000
31
0.0
0
LINE
8
Profile
10
35.750000
20
50.500000
30
0.0
11
35.700000
21
50.800000
31
0.0
0
LINE
8
Profile
10
35.700000
20
50.800000
30
0.0
11
35.650000
21
51.100000
31
0.0
0
LINE
8
Profile
10
35.650000
20
51.100000
30
0.0
11
35.600000
21
51.400000
31
0.0
0
LINE
8
Profile
10
35.600000
20
51.400000
30
0.0
11
35.550000
21
51.700000
31
0.0
0
LINE
8
Profile
10
35.550000
20
51.700000
30
0.0
11
35.500000
21
52.000000
31
0.0
0
LINE
8
Profile
10
35.500000
20
52.000000
30
0.0
11
35.450000
21
52.300000
31
0.0
0
LINE
8
Profile
10
35.450000
20
52.300000
30
0.0
11
35.400000
21
52.600000
31
0.0
0
LINE
8
Profile
10
35.400000
20
52.600000
30
0.0
11
35.350000
21
52.900000
31
0.0
0
LINE
8
Profile
10
35.350000
20
52.900000
30
0.0
11
35.300000
21
53.200000
31
0.0
0
LINE
8
Profile
10
35.300000
20
53.200000
30
0.0
11
35.250000
21
53.500000
31
0.0
0
LINE
8
Profile
10
35.250000
20
53.500000
30
0.0
11
35.200000
21
53.800000
31
0.0
0
LINE
8
Profile
10
35.200000
20
53.800000
30
0.0
11
35.150000
21
54.100000
31
0.0
0
LINE
8
Profile
10
35.150000
20
54.100000
30
0.0
11
35.100000
21
54.400000
31
0.0
0
LINE
8
Profile
10
35.100000
20
54.400000
30
0.0
11
35.050000
21
54.700000
31
0.0
0
LINE
8
Profile
10
35.050000
20
54.700000
30
0.0
11
35.000000
21
55.000000
31
0.0
0
LINE
8
Profile
10
35.000000
20
55.000000
30
0.0
11
35.000000
21
55.000000
31
0.0
0
LINE
8
Profile
10
35.000000
20
55.000000
30
0.0
11
34.730000
21
55.650000
31
0.0
0
LINE
8
Profile
10
34.730000
20
55.650000
30
0.0
11
34.460000
21
56.300000
31
0.0
0
LINE
8
Profile
10
34.460000
20
56.300000
30
0.0
11
34.190000
21
56.950000
31
0.0
0
LINE
8
Profile
10
34.190000
20
56.950000
30
0.0
11
33.920000
21
57.600000
31
0.0
0
LINE
8
Profile
10
33.920000
20
57.600000
30
0.0
11
33.650000
21
58.250000
31
0.0
0
LINE
8
Profile
10
33.650000
20
58.250000
30
0.0
11
33.380000
21
58.900000
31
0.0
0
LINE
8
Profile
10
33.380000
20
58.900000
30
0.0
11
33.110000
21
59.550000
31
0.0
0
LINE
8
Profile
10
33.110000
20
59.550000
30
0.0
11
32.840000
21
60.200000
31
0.0
0
LINE
8
Profile
10
32.840000
20
60.200000
30
0.0
11
32.570000
21
60.850000
31
0.0
0
LINE
8
Profile
10
32.570000
20
60.850000
30
0.0
11
32.300000
21
61.500000
31
0.0
0
LINE
8
Profile
10
32.300000
20
61.500000
30
0.0
11
32.030000
21
62.150000
31
0.0
0
LINE
8
Profile
10
32.030000
20
62.150000
30
0.0
11
31.760000
21
62.800000
31
0.0
0
LINE
8
Profile
10
31.760000
20
62.800000
30
0.0
11
31.490000
21
63.450000
31
0.0
0
LINE
8
Profile
10
31.490000
20
63.450000
30
0.0
11
31.220000
21
64.100000
31
0.0
0
LINE
8
Profile
10
31.220000
20
64.100000
30
0.0
11
30.950000
21
64.750000
31
0.0
0
LINE
8
Profile
10
30.950000
20
64.750000
30
0.0
11
30.680000
21
65.400000
31
0.0
0
LINE
8
Profile
10
30.680000
20
65.400000
30
0.0
11
30.410000
21
66.050000
31
0.0
0
LINE
8
Profile
10
30.410000
20
66.050000
30
0.0
11
30.140000
21
66.700000
31
0.0
0
LINE
8
Profile
10
30.140000
20
66.700000
30
0.0
11
29.870000
21
67.350000
31
0.0
0
LINE
8
Profile
10
29.870000
20
67.350000
30
0.0
11
29.600000
21
68.000000
31
0.0
0
LINE
8
Profile
10
29.600000
20
68.000000
30
0.0
11
29.330000
21
68.650000
31
0.0
0
LINE
8
Profile
10
29.330000
20
68.650000
30
0.0
11
29.060000
21
69.300000
31
0.0
0
LINE
8
Profile
10
29.060000
20
69.300000
30
0.0
11
28.790000
21
69.950000
31
0.0
0
LINE
8
Profile
10
28.790000
20
69.950000
30
0.0
11
28.520000
21
70.600000
31
0.0
0
LINE
8
Profile
10
28.520000
20
70.600000
30
0.0
11
28.250000
21
71.250000
31
0.0
0
LINE
8
Profile
10
28.250000
20
71.250000
30
0.0
11
27.980000
21
71.900000
31
0.0
0
LINE
8
Profile
10
27.980000
20
71.900000
30
0.0
11
27.710000
21
72.550000
31
0.0
0
LINE
8
Profile
10
27.710000
20
72.550000
30
0.0
11
27.440000
21
73.200000
31
0.0
0
LINE
8
Profile
10
27.440000
20
73.200000
30
0.0
11
27.170000
21
73.850000
31
0.0
0
LINE
8
Profile
10
27.170000
20
73.850000
30
0.0
11
26.900000
21
74.500000
31
0.0
0
LINE
8
Profile
10
26.900000
20
74.500000
30
0.0
11
26.630000
21
75.150000
31
0.0
0
LINE
8
Profile
10
26.630000
20
75.150000
30
0.0
11
26.360000
21
75.800000
31
0.0
0
LINE
8
Profile
10
26.360000
20
75.800000
30
0.0
11
26.090000
21
76.450000
31
0.0
0
LINE
8
Profile
10
26.090000
20
76.450000
30
0.0
11
25.820000
21
77.100000
31
0.0
0
LINE
8
Profile
10
25.820000
20
77.100000
30
0.0
11
25.550000
21
77.750000
31
0.0
0
LINE
8
Profile
10
25.550000
20
77.750000
30
0.0
11
25.280000
21
78.400000
31
0.0
0
LINE
8
Profile
10
25.280000
20
78.400000
30
0.0
11
25.010000
21
79.050000
31
0.0
0
LINE
8
Profile
10
25.010000
20
79.050000
30
0.0
11
24.740000
21
79.700000
31
0.0
0
LINE
8
Profile
10
24.740000
20
79.700000
30
0.0
11
24.470000
21
80.350000
31
0.0
0
LINE
8
Profile
10
24.470000
20
80.350000
30
0.0
11
24.200000
21
81.000000
31
0.0
0
LINE
8
Profile
10
24.200000
20
81.000000
30
0.0
11
23.930000
21
81.650000
31
0.0
0
LINE
8
Profile
10
23.930000
20
81.650000
30
0.0
11
23.660000
21
82.300000
31
0.0
0
LINE
8
Profile
10
23.660000
20
82.300000
30
0.0
11
23.390000
21
82.950000
31
0.0
0
LINE
8
Profile
10
23.390000
20
82.950000
30
0.0
11
23.120000
21
83.600000
31
0.0
0
LINE
8
Profile
10
23.120000
20
83.600000
30
0.0
11
22.850000
21
84.250000
31
0.0
0
LINE
8
Profile
10
22.850000
20
84.250000
30
0.0
11
22.580000
21
84.900000
31
0.0
0
LINE
8
Profile
10
22.580000
20
84.900000
30
0.0
11
22.310000
21
85.550000
31
0.0
0
LINE
8
Profile
10
22.310000
20
85.550000
30
0.0
11
22.040000
21
86.200000
31
0.0
0
LINE
8
Profile
10
22.040000
20
86.200000
30
0.0
11
21.770000
21
86.850000
31
0.0
0
LINE
8
Profile
10
21.770000
20
86.850000
30
0.0
11
21.500000
21
87.500000
31
0.0
0
LINE
8
Profile
10
21.500000
20
87.500000
30
0.0
11
21.230000
21
88.150000
31
0.0
0
LINE
8
Profile
10
21.230000
20
88.150000
30
0.0
11
20.960000
21
88.800000
31
0.0
0
LINE
8
Profile
10
20.960000
20
88.800000
30
0.0
11
20.690000
21
89.450000
31
0.0
0
LINE
8
Profile
10
20.690000
20
89.450000
30
0.0
11
20.420000
21
90.100000
31
0.0
0
LINE
8
Profile
10
20.420000
20
90.100000
30
0.0
11
20.150000
21
90.750000
31
0.0
0
LINE
8
Profile
10
20.150000
20
90.750000
30
0.0
11
19.880000
21
91.400000
31
0.0
0
LINE
8
Profile
10
19.880000
20
91.400000
30
0.0
11
19.610000
21
92.050000
31
0.0
0
LINE
8
Profile
10
19.610000
20
92.050000
30
0.0
11
19.340000
21
92.700000
31
0.0
0
LINE
8
Profile
10
19.340000
20
92.700000
30
0.0
11
19.070000
21
93.350000
31
0.0
0
LINE
8
Profile
10
19.070000
20
93.350000
30
0.0
11
18.800000
21
94.000000
31
0.0
0
LINE
8
Profile
10
18.800000
20
94.000000
30
0.0
11
18.530000
21
94.650000
31
0.0
0
LINE
8
Profile
10
18.530000
20
94.650000
30
0.0
11
18.260000
21
95.300000
31
0.0
0
LINE
8
Profile
10
18.260000
20
95.300000
30
0.0
11
17.990000
21
95.950000
31
0.0
0
LINE
8
Profile
10
17.990000
20
95.950000
30
0.0
11
17.720000
21
96.600000
31
0.0
0
LINE
8
Profile
10
17.720000
20
96.600000
30
0.0
11
17.450000
21
97.250000
31
0.0
0
LINE
8
Profile
10
17.450000
20
97.250000
30
0.0
11
17.180000
21
97.900000
31
0.0
0
LINE
8
Profile
10
17.180000
20
97.900000
30
0.0
11
16.910000
21
98.550000
31
0.0
0
LINE
8
Profile
10
16.910000
20
98.550000
30
0.0
11
16.640000
21
99.200000
31
0.0
0
LINE
8
Profile
10
16.640000
20
99.200000
30
0.0
11
16.370000
21
99.850000
31
0.0
0
LINE
8
Profile
10
16.370000
20
99.850000
30
0.0
11
16.100000
21
100.500000
31
0.0
0
LINE
8
Profile
10
16.100000
20
100.500000
30
0.0
11
15.830000
21
101.150000
31
0.0
0
LINE
8
Profile
10
15.830000
20
101.150000
30
0.0
11
15.560000
21
101.800000
31
0.0
0
LINE
8
Profile
10
15.560000
20
101.800000
30
0.0
11
15.290000
21
102.450000
31
0.0
0
LINE
8
Profile
10
15.290000
20
102.450000
30
0.0
11
15.020000
21
103.100000
31
0.0
0
LINE
8
Profile
10
15.020000
20
103.100000
30
0.0
11
14.750000
21
103.750000
31
0.0
0
LINE
8
Profile
10
14.750000
20
103.750000
30
0.0
11
14.480000
21
104.400000
31
0.0
0
LINE
8
Profile
10
14.480000
20
104.400000
30
0.0
11
14.210000
21
105.050000
31
0.0
0
LINE
8
Profile
10
14.210000
20
105.050000
30
0.0
11
13.940000
21
105.700000
31
0.0
0
LINE
8
Profile
10
13.940000
20
105.700000
30
0.0
11
13.670000
21
106.350000
31
0.0
0
LINE
8
Profile
10
13.670000
20
106.350000
30
0.0
11
13.400000
21
107.000000
31
0.0
0
LINE
8
Profile
10
13.400000
20
107.000000
30
0.0
11
13.130000
21
107.650000
31
0.0
0
LINE
8
Profile
10
13.130000
20
107.650000
30
0.0
11
12.860000
21
108.300000
31
0.0
0
LINE
8
Profile
10
12.860000
20
108.300000
30
0.0
11
12.590000
21
108.950000
31
0.0
0
LINE
8
Profile
10
12.590000
20
108.950000
30
0.0
11
12.320000
21
109.600000
31
0.0
0
LINE
8
Profile
10
12.320000
20
109.600000
30
0.0
11
12.050000
21
110.250000
31
0.0
0
LINE
8
Profile
10
12.050000
20
110.250000
30
0.0
11
11.780000
21
110.900000
31
0.0
0
LINE
8
Profile
10
11.780000
20
110.900000
30
0.0
11
11.510000
21
111.550000
31
0.0
0
LINE
8
Profile
10
11.510000
20
111.550000
30
0.0
11
11.240000
21
112.200000
31
0.0
0
LINE
8
Profile
10
11.240000
20
112.200000
30
0.0
11
10.970000
21
112.850000
31
0.0
0
LINE
8
Profile
10
10.970000
20
112.850000
30
0.0
11
10.700000
21
113.500000
31
0.0
0
LINE
8
Profile
10
10.700000
20
113.500000
30
0.0
11
10.430000
21
114.150000
31
0.0
0
LINE
8
Profile
10
10.430000
20
114.150000
30
0.0
11
10.160000
21
114.800000
31
0.0
0
LINE
8
Profile
10
10.160000
20
114.800000
30
0.0
11
9.890000
21
115.450000
31
0.0
0
LINE
8
Profile
10
9.890000
20
115.450000
30
0.0
11
9.620000
21
116.100000
31
0.0
0
LINE
8
Profile
10
9.620000
20
116.100000
30
0.0
11
9.350000
21
116.750000
31
0.0
0
LINE
8
Profile
10
9.350000
20
116.750000
30
0.0
11
9.080000
21
117.400000
31
0.0
0
LINE
8
Profile
10
9.080000
20
117.400000
30
0.0
11
8.810000
21
118.050000
31
0.0
0
LINE
8
Profile
10
8.810000
20
118.050000
30
0.0
11
8.540000
21
118.700000
31
0.0
0
LINE
8
Profile
10
8.540000
20
118.700000
30
0.0
11
8.270000
21
119.350000
31
0.0
0
LINE
8
Profile
10
8.270000
20
119.350000
30
0.0
11
8.000000
21
120.000000
31
0.0
0
LINE
8
Profile
10
8.000000
20
120.000000
30
0.0
11
8.000000
21
120.000000
31
0.0
0
LINE
8
Profile
10
8.000000
20
120.000000
30
0.0
11
12.000000
21
120.000000
31
0.0
0
LINE
8
Profile
10
12.000000
20
120.000000
30
0.0
11
0.000000
21
145.000000
31
0.0
0
LINE
8
Profile
10
0.000000
20
145.000000
30
0.0
11
-12.000000
21
120.000000
31
0.0
0
LINE
8
Profile
10
-12.000000
20
120.000000
30
0.0
11
-8.000000
21
120.000000
31
0.0
0
LINE
8
Profile
10
-8.000000
20
120.000000
30
0.0
11
-8.000000
21
120.000000
31
0.0
0
LINE
8
Profile
10
-8.000000
20
120.000000
30
0.0
11
-8.270000
21
119.350000
31
0.0
0
LINE
8
Profile
10
-8.270000
20
119.350000
30
0.0
11
-8.540000
21
118.700000
31
0.0
0
LINE
8
Profile
10
-8.540000
20
118.700000
30
0.0
11
-8.810000
21
118.050000
31
0.0
0
LINE
8
Profile
10
-8.810000
20
118.050000
30
0.0
11
-9.080000
21
117.400000
31
0.0
0
LINE
8
Profile
10
-9.080000
20
117.400000
30
0.0
11
-9.350000
21
116.750000
31
0.0
0
LINE
8
Profile
10
-9.350000
20
116.750000
30
0.0
11
-9.620000
21
116.100000
31
0.0
0
LINE
8
Profile
10
-9.620000
20
116.100000
30
0.0
11
-9.890000
21
115.450000
31
0.0
0
LINE
8
Profile
10
-9.890000
20
115.450000
30
0.0
11
-10.160000
21
114.800000
31
0.0
0
LINE
8
Profile
10
-10.160000
20
114.800000
30
0.0
11
-10.430000
21
114.150000
31
0.0
0
LINE
8
Profile
10
-10.430000
20
114.150000
30
0.0
11
-10.700000
21
113.500000
31
0.0
0
LINE
8
Profile
10
-10.700000
20
113.500000
30
0.0
11
-10.970000
21
112.850000
31
0.0
0
LINE
8
Profile
10
-10.970000
20
112.850000
30
0.0
11
-11.240000
21
112.200000
31
0.0
0
LINE
8
Profile
10
-11.240000
20
112.200000
30
0.0
11
-11.510000
21
111.550000
31
0.0
0
LINE
8
Profile
10
-11.510000
20
111.550000
30
0.0
11
-11.780000
21
110.900000
31
0.0
0
LINE
8
Profile
10
-11.780000
20
110.900000
30
0.0
11
-12.050000
21
110.250000
31
0.0
0
LINE
8
Profile
10
-12.050000
20
110.250000
30
0.0
11
-12.320000
21
109.600000
31
0.0
0
LINE
8
Profile
10
-12.320000
20
109.600000
30
0.0
11
-12.590000
21
108.950000
31
0.0
0
LINE
8
Profile
10
-12.590000
20
108.950000
30
0.0
11
-12.860000
21
108.300000
31
0.0
0
LINE
8
Profile
10
-12.860000
20
108.300000
30
0.0
11
-13.130000
21
107.650000
31
0.0
0
LINE
8
Profile
10
-13.130000
20
107.650000
30
0.0
11
-13.400000
21
107.000000
31
0.0
0
LINE
8
Profile
10
-13.400000
20
107.000000
30
0.0
11
-13.670000
21
106.350000
31
0.0
0
LINE
8
Profile
10
-13.670000
20
106.350000
30
0.0
11
-13.940000
21
105.700000
31
0.0
0
LINE
8
Profile
10
-13.940000
20
105.700000
30
0.0
11
-14.210000
21
105.050000
31
0.0
0
LINE
8
Profile
10
-14.210000
20
105.050000
30
0.0
11
-14.480000
21
104.400000
31
0.0
0
LINE
8
Profile
10
-14.480000
20
104.400000
30
0.0
11
-14.750000
21
103.750000
31
0.0
0
LINE
8
Profile
10
-14.750000
20
103.750000
30
0.0
11
-15.020000
21
103.100000
31
0.0
0
LINE
8
Profile
10
-15.020000
20
103.100000
30
0.0
11
-15.290000
21
102.450000
31
0.0
0
LINE
8
Profile
10
-15.290000
20
102.450000
30
0.0
11
-15.560000
21
101.800000
31
0.0
0
LINE
8
Profile
10
-15.560000
20
101.800000
30
0.0
11
-15.830000
21
101.150000
31
0.0
0
LINE
8
Profile
10
-15.830000
20
101.150000
30
0.0
11
-16.100000
21
100.500000
31
0.0
0
LINE
8
Profile
10
-16.100000
20
100.500000
30
0.0
11
-16.370000
21
99.850000
31
0.0
0
LINE
8
Profile
10
-16.370000
20
99.850000
30
0.0
11
-16.640000
21
99.200000
31
0.0
0
LINE
8
Profile
10
-16.640000
20
99.200000
30
0.0
11
-16.910000
21
98.550000
31
0.0
0
LINE
8
Profile
10
-16.910000
20
98.550000
30
0.0
11
-17.180000
21
97.900000
31
0.0
0
LINE
8
Profile
10
-17.180000
20
97.900000
30
0.0
11
-17.450000
21
97.250000
31
0.0
0
LINE
8
Profile
10
-17.450000
20
97.250000
30
0.0
11
-17.720000
21
96.600000
31
0.0
0
LINE
8
Profile
10
-17.720000
20
96.600000
30
0.0
11
-17.990000
21
95.950000
31
0.0
0
LINE
8
Profile
10
-17.990000
20
95.950000
30
0.0
11
-18.260000
21
95.300000
31
0.0
0
LINE
8
Profile
10
-18.260000
20
95.300000
30
0.0
11
-18.530000
21
94.650000
31
0.0
0
LINE
8
Profile
10
-18.530000
20
94.650000
30
0.0
11
-18.800000
21
94.000000
31
0.0
0
LINE
8
Profile
10
-18.800000
20
94.000000
30
0.0
11
-19.070000
21
93.350000
31
0.0
0
LINE
8
Profile
10
-19.070000
20
93.350000
30
0.0
11
-19.340000
21
92.700000
31
0.0
0
LINE
8
Profile
10
-19.340000
20
92.700000
30
0.0
11
-19.610000
21
92.050000
31
0.0
0
LINE
8
Profile
10
-19.610000
20
92.050000
30
0.0
11
-19.880000
21
91.400000
31
0.0
0
LINE
8
Profile
10
-19.880000
20
91.400000
30
0.0
11
-20.150000
21
90.750000
31
0.0
0
LINE
8
Profile
10
-20.150000
20
90.750000
30
0.0
11
-20.420000
21
90.100000
31
0.0
0
LINE
8
Profile
10
-20.420000
20
90.100000
30
0.0
11
-20.690000
21
89.450000
31
0.0
0
LINE
8
Profile
10
-20.690000
20
89.450000
30
0.0
11
-20.960000
21
88.800000
31
0.0
0
LINE
8
Profile
10
-20.960000
20
88.800000
30
0.0
11
-21.230000
21
88.150000
31
0.0
0
LINE
8
Profile
10
-21.230000
20
88.150000
30
0.0
11
-21.500000
21
87.500000
31
0.0
0
LINE
8
Profile
10
-21.500000
20
87.500000
30
0.0
11
-21.770000
21
86.850000
31
0.0
0
LINE
8
Profile
10
-21.770000
20
86.850000
30
0.0
11
-22.040000
21
86.200000
31
0.0
0
LINE
8
Profile
10
-22.040000
20
86.200000
30
0.0
11
-22.310000
21
85.550000
31
0.0
0
LINE
8
Profile
10
-22.310000
20
85.550000
30
0.0
11
-22.580000
21
84.900000
31
0.0
0
LINE
8
Profile
10
-22.580000
20
84.900000
30
0.0
11
-22.850000
21
84.250000
31
0.0
0
LINE
8
Profile
10
-22.850000
20
84.250000
30
0.0
11
-23.120000
21
83.600000
31
0.0
0
LINE
8
Profile
10
-23.120000
20
83.600000
30
0.0
11
-23.390000
21
82.950000
31
0.0
0
LINE
8
Profile
10
-23.390000
20
82.950000
30
0.0
11
-23.660000
21
82.300000
31
0.0
0
LINE
8
Profile
10
-23.660000
20
82.300000
30
0.0
11
-23.930000
21
81.650000
31
0.0
0
LINE
8
Profile
10
-23.930000
20
81.650000
30
0.0
11
-24.200000
21
81.000000
31
0.0
0
LINE
8
Profile
10
-24.200000
20
81.000000
30
0.0
11
-24.470000
21
80.350000
31
0.0
0
LINE
8
Profile
10
-24.470000
20
80.350000
30
0.0
11
-24.740000
21
79.700000
31
0.0
0
LINE
8
Profile
10
-24.740000
20
79.700000
30
0.0
11
-25.010000
21
79.050000
31
0.0
0
LINE
8
Profile
10
-25.010000
20
79.050000
30
0.0
11
-25.280000
21
78.400000
31
0.0
0
LINE
8
Profile
10
-25.280000
20
78.400000
30
0.0
11
-25.550000
21
77.750000
31
0.0
0
LINE
8
Profile
10
-25.550000
20
77.750000
30
0.0
11
-25.820000
21
77.100000
31
0.0
0
LINE
8
Profile
10
-25.820000
20
77.100000
30
0.0
11
-26.090000
21
76.450000
31
0.0
0
LINE
8
Profile
10
-26.090000
20
76.450000
30
0.0
11
-26.360000
21
75.800000
31
0.0
0
LINE
8
Profile
10
-26.360000
20
75.800000
30
0.0
11
-26.630000
21
75.150000
31
0.0
0
LINE
8
Profile
10
-26.630000
20
75.150000
30
0.0
11
-26.900000
21
74.500000
31
0.0
0
LINE
8
Profile
10
-26.900000
20
74.500000
30
0.0
11
-27.170000
21
73.850000
31
0.0
0
LINE
8
Profile
10
-27.170000
20
73.850000
30
0.0
11
-27.440000
21
73.200000
31
0.0
0
LINE
8
Profile
10
-27.440000
20
73.200000
30
0.0
11
-27.710000
21
72.550000
31
0.0
0
LINE
8
Profile
10
-27.710000
20
72.550000
30
0.0
11
-27.980000
21
71.900000
31
0.0
0
LINE
8
Profile
10
-27.980000
20
71.900000
30
0.0
11
-28.250000
21
71.250000
31
0.0
0
LINE
8
Profile
10
-28.250000
20
71.250000
30
0.0
11
-28.520000
21
70.600000
31
0.0
0
LINE
8
Profile
10
-28.520000
20
70.600000
30
0.0
11
-28.790000
21
69.950000
31
0.0
0
LINE
8
Profile
10
-28.790000
20
69.950000
30
0.0
11
-29.060000
21
69.300000
31
0.0
0
LINE
8
Profile
10
-29.060000
20
69.300000
30
0.0
11
-29.330000
21
68.650000
31
0.0
0
LINE
8
Profile
10
-29.330000
20
68.650000
30
0.0
11
-29.600000
21
68.000000
31
0.0
0
LINE
8
Profile
10
-29.600000
20
68.000000
30
0.0
11
-29.870000
21
67.350000
31
0.0
0
LINE
8
Profile
10
-29.870000
20
67.350000
30
0.0
11
-30.140000
21
66.700000
31
0.0
0
LINE
8
Profile
10
-30.140000
20
66.700000
30
0.0
11
-30.410000
21
66.050000
31
0.0
0
LINE
8
Profile
10
-30.410000
20
66.050000
30
0.0
11
-30.680000
21
65.400000
31
0.0
0
LINE
8
Profile
10
-30.680000
20
65.400000
30
0.0
11
-30.950000
21
64.750000
31
0.0
0
LINE
8
Profile
10
-30.950000
20
64.750000
30
0.0
11
-31.220000
21
64.100000
31
0.0
0
LINE
8
Profile
10
-31.220000
20
64.100000
30
0.0
11
-31.490000
21
63.450000
31
0.0
0
LINE
8
Profile
10
-31.490000
20
63.450000
30
0.0
11
-31.760000
21
62.800000
31
0.0
0
LINE
8
Profile
10
-31.760000
20
62.800000
30
0.0
11
-32.030000
21
62.150000
31
0.0
0
LINE
8
Profile
10
-32.030000
20
62.150000
30
0.0
11
-32.300000
21
61.500000
31
0.0
0
LINE
8
Profile
10
-32.300000
20
61.500000
30
0.0
11
-32.570000
21
60.850000
31
0.0
0
LINE
8
Profile
10
-32.570000
20
60.850000
30
0.0
11
-32.840000
21
60.200000
31
0.0
0
LINE
8
Profile
10
-32.840000
20
60.200000
30
0.0
11
-33.110000
21
59.550000
31
0.0
0
LINE
8
Profile
10
-33.110000
20
59.550000
30
0.0
11
-33.380000
21
58.900000
31
0.0
0
LINE
8
Profile
10
-33.380000
20
58.900000
30
0.0
11
-33.650000
21
58.250000
31
0.0
0
LINE
8
Profile
10
-33.650000
20
58.250000
30
0.0
11
-33.920000
21
57.600000
31
0.0
0
LINE
8
Profile
10
-33.920000
20
57.600000
30
0.0
11
-34.190000
21
56.950000
31
0.0
0
LINE
8
Profile
10
-34.190000
20
56.950000
30
0.0
11
-34.460000
21
56.300000
31
0.0
0
LINE
8
Profile
10
-34.460000
20
56.300000
30
0.0
11
-34.730000
21
55.650000
31
0.0
0
LINE
8
Profile
10
-34.730000
20
55.650000
30
0.0
11
-35.000000
21
55.000000
31
0.0
0
LINE
8
Profile
10
-35.000000
20
55.000000
30
0.0
11
-35.000000
21
55.000000
31
0.0
0
LINE
8
Profile
10
-35.000000
20
55.000000
30
0.0
11
-35.050000
21
54.700000
31
0.0
0
LINE
8
Profile
10
-35.050000
20
54.700000
30
0.0
11
-35.100000
21
54.400000
31
0.0
0
LINE
8
Profile
10
-35.100000
20
54.400000
30
0.0
11
-35.150000
21
54.100000
31
0.0
0
LINE
8
Profile
10
-35.150000
20
54.100000
30
0.0
11
-35.200000
21
53.800000
31
0.0
0
LINE
8
Profile
10
-35.200000
20
53.800000
30
0.0
11
-35.250000
21
53.500000
31
0.0
0
LINE
8
Profile
10
-35.250000
20
53.500000
30
0.0
11
-35.300000
21
53.200000
31
0.0
0
LINE
8
Profile
10
-35.300000
20
53.200000
30
0.0
11
-35.350000
21
52.900000
31
0.0
0
LINE
8
Profile
10
-35.350000
20
52.900000
30
0.0
11
-35.400000
21
52.600000
31
0.0
0
LINE
8
Profile
10
-35.400000
20
52.600000
30
0.0
11
-35.450000
21
52.300000
31
0.0
0
LINE
8
Profile
10
-35.450000
20
52.300000
30
0.0
11
-35.500000
21
52.000000
31
0.0
0
LINE
8
Profile
10
-35.500000
20
52.000000
30
0.0
11
-35.550000
21
51.700000
31
0.0
0
LINE
8
Profile
10
-35.550000
20
51.700000
30
0.0
11
-35.600000
21
51.400000
31
0.0
0
LINE
8
Profile
10
-35.600000
20
51.400000
30
0.0
11
-35.650000
21
51.100000
31
0.0
0
LINE
8
Profile
10
-35.650000
20
51.100000
30
0.0
11
-35.700000
21
50.800000
31
0.0
0
LINE
8
Profile
10
-35.700000
20
50.800000
30
0.0
11
-35.750000
21
50.500000
31
0.0
0
LINE
8
Profile
10
-35.750000
20
50.500000
30
0.0
11
-35.800000
21
50.200000
31
0.0
0
LINE
8
Profile
10
-35.800000
20
50.200000
30
0.0
11
-35.850000
21
49.900000
31
0.0
0
LINE
8
Profile
10
-35.850000
20
49.900000
30
0.0
11
-35.900000
21
49.600000
31
0.0
0
LINE
8
Profile
10
-35.900000
20
49.600000
30
0.0
11
-35.950000
21
49.300000
31
0.0
0
LINE
8
Profile
10
-35.950000
20
49.300000
30
0.0
11
-36.000000
21
49.000000
31
0.0
0
LINE
8
Profile
10
-36.000000
20
49.000000
30
0.0
11
-36.050000
21
48.700000
31
0.0
0
LINE
8
Profile
10
-36.050000
20
48.700000
30
0.0
11
-36.100000
21
48.400000
31
0.0
0
LINE
8
Profile
10
-36.100000
20
48.400000
30
0.0
11
-36.150000
21
48.100000
31
0.0
0
LINE
8
Profile
10
-36.150000
20
48.100000
30
0.0
11
-36.200000
21
47.800000
31
0.0
0
LINE
8
Profile
10
-36.200000
20
47.800000
30
0.0
11
-36.250000
21
47.500000
31
0.0
0
LINE
8
Profile
10
-36.250000
20
47.500000
30
0.0
11
-36.300000
21
47.200000
31
0.0
0
LINE
8
Profile
10
-36.300000
20
47.200000
30
0.0
11
-36.350000
21
46.900000
31
0.0
0
LINE
8
Profile
10
-36.350000
20
46.900000
30
0.0
11
-36.400000
21
46.600000
31
0.0
0
LINE
8
Profile
10
-36.400000
20
46.600000
30
0.0
11
-36.450000
21
46.300000
31
0.0
0
LINE
8
Profile
10
-36.450000
20
46.300000
30
0.0
11
-36.500000
21
46.000000
31
0.0
0
LINE
8
Profile
10
-36.500000
20
46.000000
30
0.0
11
-36.550000
21
45.700000
31
0.0
0
LINE
8
Profile
10
-36.550000
20
45.700000
30
0.0
11
-36.600000
21
45.400000
31
0.0
0
LINE
8
Profile
10
-36.600000
20
45.400000
30
0.0
11
-36.650000
21
45.100000
31
0.0
0
LINE
8
Profile
10
-36.650000
20
45.100000
30
0.0
11
-36.700000
21
44.800000
31
0.0
0
LINE
8
Profile
10
-36.700000
20
44.800000
30
0.0
11
-36.750000
21
44.500000
31
0.0
0
LINE
8
Profile
10
-36.750000
20
44.500000
30
0.0
11
-36.800000
21
44.200000
31
0.0
0
LINE
8
Profile
10
-36.800000
20
44.200000
30
0.0
11
-36.850000
21
43.900000
31
0.0
0
LINE
8
Profile
10
-36.850000
20
43.900000
30
0.0
11
-36.900000
21
43.600000
31
0.0
0
LINE
8
Profile
10
-36.900000
20
43.600000
30
0.0
11
-36.950000
21
43.300000
31
0.0
0
LINE
8
Profile
10
-36.950000
20
43.300000
30
0.0
11
-37.000000
21
43.000000
31
0.0
0
LINE
8
Profile
10
-37.000000
20
43.000000
30
0.0
11
-37.050000
21
42.700000
31
0.0
0
LINE
8
Profile
10
-37.050000
20
42.700000
30
0.0
11
-37.100000
21
42.400000
31
0.0
0
LINE
8
Profile
10
-37.100000
20
42.400000
30
0.0
11
-37.150000
21
42.100000
31
0.0
0
LINE
8
Profile
10
-37.150000
20
42.100000
30
0.0
11
-37.200000
21
41.800000
31
0.0
0
LINE
8
Profile
10
-37.200000
20
41.800000
30
0.0
11
-37.250000
21
41.500000
31
0.0
0
LINE
8
Profile
10
-37.250000
20
41.500000
30
0.0
11
-37.300000
21
41.200000
31
0.0
0
LINE
8
Profile
10
-37.300000
20
41.200000
30
0.0
11
-37.350000
21
40.900000
31
0.0
0
LINE
8
Profile
10
-37.350000
20
40.900000
30
0.0
11
-37.400000
21
40.600000
31
0.0
0
LINE
8
Profile
10
-37.400000
20
40.600000
30
0.0
11
-37.450000
21
40.300000
31
0.0
0
LINE
8
Profile
10
-37.450000
20
40.300000
30
0.0
11
-37.500000
21
40.000000
31
0.0
0
LINE
8
Profile
10
-37.500000
20
40.000000
30
0.0
11
-37.550000
21
39.700000
31
0.0
0
LINE
8
Profile
10
-37.550000
20
39.700000
30
0.0
11
-37.600000
21
39.400000
31
0.0
0
LINE
8
Profile
10
-37.600000
20
39.400000
30
0.0
11
-37.650000
21
39.100000
31
0.0
0
LINE
8
Profile
10
-37.650000
20
39.100000
30
0.0
11
-37.700000
21
38.800000
31
0.0
0
LINE
8
Profile
10
-37.700000
20
38.800000
30
0.0
11
-37.750000
21
38.500000
31
0.0
0
LINE
8
Profile
10
-37.750000
20
38.500000
30
0.0
11
-37.800000
21
38.200000
31
0.0
0
LINE
8
Profile
10
-37.800000
20
38.200000
30
0.0
11
-37.850000
21
37.900000
31
0.0
0
LINE
8
Profile
10
-37.850000
20
37.900000
30
0.0
11
-37.900000
21
37.600000
31
0.0
0
LINE
8
Profile
10
-37.900000
20
37.600000
30
0.0
11
-37.950000
21
37.300000
31
0.0
0
LINE
8
Profile
10
-37.950000
20
37.300000
30
0.0
11
-38.000000
21
37.000000
31
0.0
0
LINE
8
Profile
10
-38.000000
20
37.000000
30
0.0
11
-38.050000
21
36.700000
31
0.0
0
LINE
8
Profile
10
-38.050000
20
36.700000
30
0.0
11
-38.100000
21
36.400000
31
0.0
0
LINE
8
Profile
10
-38.100000
20
36.400000
30
0.0
11
-38.150000
21
36.100000
31
0.0
0
LINE
8
Profile
10
-38.150000
20
36.100000
30
0.0
11
-38.200000
21
35.800000
31
0.0
0
LINE
8
Profile
10
-38.200000
20
35.800000
30
0.0
11
-38.250000
21
35.500000
31
0.0
0
LINE
8
Profile
10
-38.250000
20
35.500000
30
0.0
11
-38.300000
21
35.200000
31
0.0
0
LINE
8
Profile
10
-38.300000
20
35.200000
30
0.0
11
-38.350000
21
34.900000
31
0.0
0
LINE
8
Profile
10
-38.350000
20
34.900000
30
0.0
11
-38.400000
21
34.600000
31
0.0
0
LINE
8
Profile
10
-38.400000
20
34.600000
30
0.0
11
-38.450000
21
34.300000
31
0.0
0
LINE
8
Profile
10
-38.450000
20
34.300000
30
0.0
11
-38.500000
21
34.000000
31
0.0
0
LINE
8
Profile
10
-38.500000
20
34.000000
30
0.0
11
-38.550000
21
33.700000
31
0.0
0
LINE
8
Profile
10
-38.550000
20
33.700000
30
0.0
11
-38.600000
21
33.400000
31
0.0
0
LINE
8
Profile
10
-38.600000
20
33.400000
30
0.0
11
-38.650000
21
33.100000
31
0.0
0
LINE
8
Profile
10
-38.650000
20
33.100000
30
0.0
11
-38.700000
21
32.800000
31
0.0
0
LINE
8
Profile
10
-38.700000
20
32.800000
30
0.0
11
-38.750000
21
32.500000
31
0.0
0
LINE
8
Profile
10
-38.750000
20
32.500000
30
0.0
11
-38.800000
21
32.200000
31
0.0
0
LINE
8
Profile
10
-38.800000
20
32.200000
30
0.0
11
-38.850000
21
31.900000
31
0.0
0
LINE
8
Profile
10
-38.850000
20
31.900000
30
0.0
11
-38.900000
21
31.600000
31
0.0
0
LINE
8
Profile
10
-38.900000
20
31.600000
30
0.0
11
-38.950000
21
31.300000
31
0.0
0
LINE
8
Profile
10
-38.950000
20
31.300000
30
0.0
11
-39.000000
21
31.000000
31
0.0
0
LINE
8
Profile
10
-39.000000
20
31.000000
30
0.0
11
-39.050000
21
30.700000
31
0.0
0
LINE
8
Profile
10
-39.050000
20
30.700000
30
0.0
11
-39.100000
21
30.400000
31
0.0
0
LINE
8
Profile
10
-39.100000
20
30.400000
30
0.0
11
-39.150000
21
30.100000
31
0.0
0
LINE
8
Profile
10
-39.150000
20
30.100000
30
0.0
11
-39.200000
21
29.800000
31
0.0
0
LINE
8
Profile
10
-39.200000
20
29.800000
30
0.0
11
-39.250000
21
29.500000
31
0.0
0
LINE
8
Profile
10
-39.250000
20
29.500000
30
0.0
11
-39.300000
21
29.200000
31
0.0
0
LINE
8
Profile
10
-39.300000
20
29.200000
30
0.0
11
-39.350000
21
28.900000
31
0.0
0
LINE
8
Profile
10
-39.350000
20
28.900000
30
0.0
11
-39.400000
21
28.600000
31
0.0
0
LINE
8
Profile
10
-39.400000
20
28.600000
30
0.0
11
-39.450000
21
28.300000
31
0.0
0
LINE
8
Profile
10
-39.450000
20
28.300000
30
0.0
11
-39.500000
21
28.000000
31
0.0
0
LINE
8
Profile
10
-39.500000
20
28.000000
30
0.0
11
-39.550000
21
27.700000
31
0.0
0
LINE
8
Profile
10
-39.550000
20
27.700000
30
0.0
11
-39.600000
21
27.400000
31
0.0
0
LINE
8
Profile
10
-39.600000
20
27.400000
30
0.0
11
-39.650000
21
27.100000
31
0.0
0
LINE
8
Profile
10
-39.650000
20
27.100000
30
0.0
11
-39.700000
21
26.800000
31
0.0
0
LINE
8
Profile
10
-39.700000
20
26.800000
30
0.0
11
-39.750000
21
26.500000
31
0.0
0
LINE
8
Profile
10
-39.750000
20
26.500000
30
0.0
11
-39.800000
21
26.200000
31
0.0
0
LINE
8
Profile
10
-39.800000
20
26.200000
30
0.0
11
-39.850000
21
25.900000
31
0.0
0
LINE
8
Profile
10
-39.850000
20
25.900000
30
0.0
11
-39.900000
21
25.600000
31
0.0
0
LINE
8
Profile
10
-39.900000
20
25.600000
30
0.0
11
-39.950000
21
25.300000
31
0.0
0
LINE
8
Profile
10
-39.950000
20
25.300000
30
0.0
11
-40.000000
21
25.000000
31
0.0
0
LINE
8
Profile
10
-40.000000
20
25.000000
30
0.0
11
-40.000000
21
25.000000
31
0.0
0
LINE
8
Profile
10
-40.000000
20
25.000000
30
0.0
11
-40.000000
21
0.000000
31
0.0
0
LINE
8
Profile
10
-40.000000
20
0.000000
30
0.0
11
0.000000
21
0.000000
31
0.0
0
LINE
8
Centerline
10
0.0
20
-35.000000
30
0.0
11
0.0
21
155.000000
31
0.0
0
CIRCLE
8
Profile
10
-25.000000
20
12.500000
30
0.0
40
5.000000
0
CIRCLE
8
Profile
10
25.000000
20
12.500000
30
0.0
40
5.000000
0
LINE
8
Dimensions
10
5.000000
20
170.000000
30
0.0
11
5.000000
21
175.000000
31
0.0
0
LINE
8
Dimensions
10
5.000000
21
175.000000
31
0.0
11
5.000000
21
180.000000
31
0.0
0
TEXT
8
Dimensions
10
8.000000
20
185.000000
30
0.0
40
4.0
1
L=480mm
0
TEXT
8
Dimensions
10
-30.0
20
-55.000000
30
0.0
40
6.0
1
Goose-Neck Punch 鹅颈弯刀
0
TEXT
8
Dimensions
10
-30.0
20
-67.000000
30
0.0
40
4.0
1
Angle: 60deg  Blade: 56mm
0
TEXT
8
Dimensions
10
-30.0
20
-77.000000
30
0.0
40
4.0
1
Material: SKD11  Hardness: 58-62HRC
0
LINE
8
Dimensions
10
200.000000
20
-85.000000
30
0.0
11
400.000000
21
-85.000000
31
0.0
0
LINE
8
Dimensions
10
200.000000
20
-85.000000
30
0.0
11
200.000000
21
-45.000000
31
0.0
0
LINE
8
Dimensions
10
400.000000
20
-85.000000
30
0.0
11
400.000000
21
-45.000000
31
0.0
0
LINE
8
Dimensions
10
200.000000
20
-45.000000
30
0.0
11
400.000000
21
-45.000000
31
0.0
0
TEXT
8
Dimensions
10
210.000000
20
-75.000000
30
0.0
40
3.5
1
Part No.: UKB-GN-60-56
0
TEXT
8
Dimensions
10
210.000000
20
-63.000000
30
0.0
40
3.5
1
Description: Goose-Neck Punch 60°
0
ENDSEC
0
EOF
